<svg id="SvgjsSvg1001" width="288" height="288" xmlns="http://www.w3.org/2000/svg" version="1.1" xmlns:xlink="http://www.w3.org/1999/xlink" xmlns:svgjs="http://svgjs.com/svgjs"><defs id="SvgjsDefs1002"></defs><g id="SvgjsG1008"><svg xmlns="http://www.w3.org/2000/svg" viewBox="0 0 30 30" width="288" height="288"><path d="M 5 5 C 4.2955948 5 3.6803238 5.3628126 3.3242188 5.9101562 L 14.292969 16.878906 C 14.696939 17.282876 15.303061 17.282876 15.707031 16.878906 L 26.675781 5.9101562 C 26.319676 5.3628126 25.704405 5 25 5 L 5 5 z M 3 8.4140625 L 3 23 C 3 24.108 3.892 25 5 25 L 25 25 C 26.108 25 27 24.108 27 23 L 27 8.4140625 L 17.121094 18.292969 C 15.958108 19.455959 14.041892 19.455959 12.878906 18.292969 L 3 8.4140625 z " fill="#ffffff" class="color000 svgShape"></path></svg></g></svg>